<?xml version="1.0" standalone="no"?>
<!DOCTYPE svg PUBLIC "-//W3C//DTD SVG 20010904//EN"
 "http://www.w3.org/TR/2001/REC-SVG-20010904/DTD/svg10.dtd">
<svg version="1.0" xmlns="http://www.w3.org/2000/svg"
 width="125.000000pt" height="125.000000pt" viewBox="0 0 125.000000 125.000000"
 preserveAspectRatio="xMidYMid meet">
<metadata>
Created by potrace 1.14, written by Peter Selinger 2001-2017
</metadata>
<g transform="translate(0.000000,125.000000) scale(0.100000,-0.100000)"
fill="#000000" stroke="none">
<path d="M620 1225 c-1 -11 -3 -27 -5 -35 -2 -8 -6 -28 -9 -45 -3 -16 -10 -55
-16 -85 -7 -30 -14 -68 -16 -85 -3 -16 -8 -41 -11 -55 -2 -14 -5 -33 -5 -42 1
-10 -2 -18 -6 -18 -8 0 -78 64 -204 186 -43 41 -78 71 -78 66 0 -8 142 -310
157 -335 3 -5 -23 -6 -58 -2 -35 4 -79 8 -97 10 -18 2 -45 6 -60 9 -15 3 -49
8 -77 11 -27 3 -60 7 -73 9 -30 6 -28 0 6 -16 124 -63 312 -172 305 -178 -9
-9 -169 -96 -260 -143 -35 -17 -63 -34 -63 -37 0 -4 26 -3 58 1 31 5 82 11
112 15 30 3 64 8 75 10 11 2 46 7 79 10 54 6 57 5 48 -12 -5 -11 -29 -59 -52
-109 -23 -49 -58 -121 -76 -158 -39 -78 -34 -77 56 9 140 133 195 184 200 184
3 0 6 -8 7 -19 1 -10 14 -81 28 -157 15 -77 28 -149 29 -162 3 -22 15 -43 17
-26 0 5 3 20 5 34 6 36 36 192 39 210 2 8 7 36 11 63 3 26 10 49 13 52 7 4 43
-28 191 -169 41 -40 80 -75 87 -79 11 -7 -50 129 -97 215 -11 20 -20 44 -20
52 0 9 -4 16 -8 16 -4 0 -13 14 -19 31 l-12 31 62 -6 c34 -4 76 -9 92 -11 74
-11 104 -15 160 -21 33 -3 63 -8 68 -11 4 -2 7 -2 7 1 0 4 -62 38 -250 139
-41 22 -78 43 -83 47 -7 6 57 43 238 140 33 18 69 39 80 47 20 14 19 15 -3 8
-12 -4 -43 -8 -69 -11 -47 -4 -109 -11 -153 -19 -14 -2 -53 -7 -88 -10 l-63
-7 14 29 c8 15 29 60 47 98 18 39 51 106 73 150 44 88 41 88 -63 -12 -190
-181 -191 -182 -196 -145 -2 9 -6 33 -10 52 -10 51 -11 53 -29 153 -22 119
-33 158 -35 132z"/>
</g>
</svg>
