<svg width="18" height="18" viewBox="0 0 18 18" fill="none" xmlns="http://www.w3.org/2000/svg">
<path d="M8.20841 11.4583L6.66675 13C6.34175 13.325 5.82508 13.325 5.49175 13.0083C5.40008 12.9167 5.30841 12.8333 5.21675 12.7417C4.35841 11.875 3.58341 10.9667 2.89175 10.0167C2.20841 9.06667 1.65841 8.11667 1.25841 7.17501C0.866748 6.22501 0.666748 5.31667 0.666748 4.45C0.666748 3.88334 0.766748 3.34167 0.966748 2.84167C1.16675 2.33334 1.48341 1.86667 1.92508 1.45001C2.45841 0.925005 3.04175 0.666672 3.65841 0.666672C3.89175 0.666672 4.12508 0.716672 4.33341 0.816672C4.55008 0.916672 4.74175 1.06667 4.89175 1.28334L6.82508 4.00834C6.97508 4.21667 7.08341 4.40834 7.15841 4.59167C7.23341 4.76667 7.27508 4.94167 7.27508 5.10001C7.27508 5.30001 7.21675 5.5 7.10008 5.69167C6.99175 5.88334 6.83341 6.08334 6.63341 6.28334L6.00008 6.94167C5.90841 7.03334 5.86675 7.14167 5.86675 7.27501C5.86675 7.34167 5.87508 7.4 5.89175 7.46667C5.91675 7.53334 5.94175 7.58334 5.95841 7.63334C6.10841 7.90834 6.36675 8.26667 6.73341 8.70001C7.10841 9.13334 7.50841 9.57501 7.94175 10.0167C8.02508 10.1 8.11675 10.1833 8.20008 10.2667C8.53341 10.5917 8.54175 11.125 8.20841 11.4583Z" fill="#898989"/>
<path d="M17.3083 14.275C17.3083 14.5083 17.2667 14.75 17.1833 14.9833C17.1583 15.05 17.1333 15.1167 17.1 15.1833C16.9583 15.4833 16.775 15.7667 16.5333 16.0333C16.125 16.4833 15.675 16.8083 15.1667 17.0167C15.1583 17.0167 15.15 17.025 15.1417 17.025C14.65 17.225 14.1167 17.3333 13.5417 17.3333C12.6917 17.3333 11.7833 17.1333 10.825 16.725C9.86667 16.3167 8.90833 15.7667 7.95833 15.075C7.63333 14.8333 7.30833 14.5917 7 14.3333L9.725 11.6083C9.95833 11.7833 10.1667 11.9167 10.3417 12.0083C10.3833 12.025 10.4333 12.05 10.4917 12.075C10.5583 12.1 10.625 12.1083 10.7 12.1083C10.8417 12.1083 10.95 12.0583 11.0417 11.9667L11.675 11.3417C11.8833 11.1333 12.0833 10.975 12.275 10.875C12.4667 10.7583 12.6583 10.7 12.8667 10.7C13.025 10.7 13.1917 10.7333 13.375 10.8083C13.5583 10.8833 13.75 10.9917 13.9583 11.1333L16.7167 13.0917C16.9333 13.2417 17.0833 13.4167 17.175 13.625C17.2583 13.8333 17.3083 14.0417 17.3083 14.275Z" fill="#898989"/>
</svg>
