<svg width="18" height="16" viewBox="0 0 18 16" fill="none" xmlns="http://www.w3.org/2000/svg">
<path d="M13.1667 0.916672H4.83341C2.33341 0.916672 0.666748 2.16667 0.666748 5.08334V10.9167C0.666748 13.8333 2.33341 15.0833 4.83341 15.0833H13.1667C15.6667 15.0833 17.3334 13.8333 17.3334 10.9167V5.08334C17.3334 2.16667 15.6667 0.916672 13.1667 0.916672ZM13.5584 5.99167L10.9501 8.07501C10.4001 8.51667 9.70008 8.73334 9.00008 8.73334C8.30008 8.73334 7.59175 8.51667 7.05008 8.07501L4.44175 5.99167C4.17508 5.77501 4.13341 5.37501 4.34175 5.10834C4.55841 4.84167 4.95008 4.79167 5.21675 5.00834L7.82508 7.09167C8.45842 7.60001 9.53341 7.60001 10.1667 7.09167L12.7751 5.00834C13.0417 4.79167 13.4417 4.83334 13.6501 5.10834C13.8667 5.37501 13.8251 5.77501 13.5584 5.99167Z" fill="#898989"/>
</svg>
