<svg width="10" height="14" viewBox="0 0 10 14" fill="none" xmlns="http://www.w3.org/2000/svg">
<path d="M5.02538 0.446518C2.5215 0.446518 0.496391 2.47162 0.496391 4.97551C0.496391 8.37225 5.02538 13.3865 5.02538 13.3865C5.02538 13.3865 9.55438 8.37225 9.55438 4.97551C9.55438 2.47162 7.52927 0.446518 5.02538 0.446518ZM1.79039 4.97551C1.79039 3.18979 3.23967 1.74052 5.02538 1.74052C6.8111 1.74052 8.26038 3.18979 8.26038 4.97551C8.26038 6.83887 6.39702 9.62743 5.02538 11.3679C3.67963 9.64037 1.79039 6.81946 1.79039 4.97551Z" fill="#898989"/>
<path d="M5.02535 6.59309C5.91867 6.59309 6.64285 5.86891 6.64285 4.97559C6.64285 4.08227 5.91867 3.35809 5.02535 3.35809C4.13203 3.35809 3.40785 4.08227 3.40785 4.97559C3.40785 5.86891 4.13203 6.59309 5.02535 6.59309Z" fill="#898989"/>
</svg>
